<?xml version="1.0"?><svg fill="#000000" xmlns="http://www.w3.org/2000/svg"  viewBox="0 0 50 50" width="100px" height="100px">    <path d="M 6.109375 17.896484 C 3.022375 17.896484 0 20.359562 0 23.976562 C 5.9211895e-16 27.559563 3.022375 30.023438 6.109375 30.023438 C 6.645375 30.023437 7.1853594 29.946547 7.6933594 29.810547 C 8.2983594 30.849547 9.1077188 31.734375 10.636719 31.734375 C 13.158719 31.734375 13.437766 29.410563 13.384766 28.851562 L 12.482422 28.851562 C 12.435422 29.271563 12.155891 29.806641 11.462891 29.806641 C 10.827891 29.806641 10.372687 29.367125 9.9296875 28.703125 C 11.300688 27.641125 12.242188 25.997563 12.242188 23.976562 C 12.242187 20.341563 9.248375 17.896484 6.109375 17.896484 z M 6.1113281 19.099609 C 8.4643281 19.099609 9.4707031 20.753609 9.4707031 23.974609 C 9.4707031 25.264609 9.3022656 26.305172 8.9472656 27.076172 C 8.3492656 26.174172 7.5969062 25.466797 6.1289062 25.466797 C 5.1849063 25.466797 4.4500937 25.776016 3.9960938 26.166016 L 4.3691406 26.912109 C 4.5611406 26.825109 4.7704688 26.789062 4.9804688 26.789062 C 6.0774687 26.789063 6.6391406 27.7435 7.1191406 28.6875 C 6.8121406 28.7775 6.4783281 28.816453 6.1113281 28.814453 C 3.7933281 28.814453 2.7910156 27.178609 2.7910156 23.974609 C 2.7910156 20.753609 3.7923281 19.099609 6.1113281 19.099609 z M 39.083984 20.833984 C 38.117984 20.833984 37.086172 21.515594 36.701172 22.808594 L 36.632812 22.808594 L 36.457031 21.009766 L 33.003906 21.009766 L 33.003906 22.109375 L 33.492188 22.109375 C 34.051187 22.109375 34.296875 22.319016 34.296875 22.791016 L 34.296875 27.578125 C 34.296875 28.364125 34.209781 28.626953 33.300781 28.626953 L 32.933594 28.626953 L 32.933594 29.728516 L 38.345703 29.728516 L 38.345703 28.626953 L 37.837891 28.626953 C 36.946891 28.626953 36.753906 28.364125 36.753906 27.578125 L 36.753906 24.345703 C 36.753906 23.547703 37.196578 23.005859 37.767578 23.005859 C 38.408578 23.005859 38.560938 23.53125 39.335938 23.53125 C 40.197938 23.53125 40.505859 22.848984 40.505859 22.208984 C 40.505859 21.288984 39.881984 20.833984 39.083984 20.833984 z M 27.851562 20.878906 C 25.376563 20.878906 23.244141 22.677719 23.244141 25.386719 C 23.244141 28.146719 25.428563 30 27.851562 30 C 30.431563 30 32.5 28.146719 32.5 25.386719 C 32.5 22.712719 30.431563 20.878906 27.851562 20.878906 z M 12.828125 21 L 12.828125 22.113281 L 13.404297 22.113281 C 13.946297 22.113281 14.121094 22.325734 14.121094 22.802734 L 14.121094 26.994141 C 14.121094 29.240141 15.309922 30 16.794922 30 C 18.117922 30 19.043172 29.451672 19.701172 28.638672 L 19.771484 28.638672 L 19.771484 29.822266 L 23.171875 29.273438 L 23.171875 28.125 L 23.050781 28.125 C 22.351781 28.125 22.123047 27.842656 22.123047 27.222656 L 22.123047 21 L 18.320312 21 L 18.320312 22.113281 L 18.931641 22.113281 C 19.472641 22.113281 19.648438 22.325734 19.648438 22.802734 L 19.648438 27.400391 C 19.287437 28.084391 18.616266 28.384766 17.947266 28.384766 C 17.131266 28.384766 16.595703 27.943406 16.595703 26.941406 L 16.595703 21 L 12.828125 21 z M 44.802734 21.011719 C 42.396734 21.011719 41.115234 21.879172 41.115234 22.951172 C 41.115234 23.481172 41.418219 23.953125 42.199219 23.953125 C 43.824219 23.953125 43.020156 22.054688 44.785156 22.054688 C 45.414156 22.054688 45.984375 22.282422 45.984375 23.732422 L 45.984375 23.935547 C 44.819375 25.821547 40.853516 25.065109 40.853516 27.912109 C 40.853516 29.327109 41.832656 30.132812 43.347656 30.132812 C 44.650918 30.132812 45.581827 29.545056 46.037109 28.671875 L 46.107422 28.671875 C 46.195422 29.469875 46.852391 29.957031 47.900391 29.957031 C 49.106391 29.957031 49.741469 29.310359 49.980469 28.943359 L 49.689453 28.234375 C 49.555453 28.328375 49.381875 28.386719 49.171875 28.386719 C 48.682875 28.386719 48.478516 28.082438 48.478516 27.523438 L 48.478516 23.90625 C 48.478516 21.64025 47.079734 21.011719 44.802734 21.011719 z M 27.851562 21.980469 C 29.191563 21.980469 29.753563 23.090719 29.726562 25.386719 C 29.700563 27.732719 29.191562 28.898438 27.851562 28.898438 C 26.669562 28.898438 25.947266 27.734719 25.947266 25.386719 C 25.947266 23.091719 26.681563 21.980469 27.851562 21.980469 z M 45.984375 25.1875 L 45.984375 26.587891 C 45.984375 27.635891 45.530687 28.677734 44.429688 28.677734 C 43.742688 28.677734 43.310547 28.263156 43.310547 27.535156 C 43.310547 26.050156 45.180375 26.0205 45.984375 25.1875 z"/></svg>